<?xml version="1.0" standalone="no"?>
<!DOCTYPE svg PUBLIC "-//W3C//DTD SVG 20010904//EN"
 "http://www.w3.org/TR/2001/REC-SVG-20010904/DTD/svg10.dtd">
<svg version="1.0" xmlns="http://www.w3.org/2000/svg"
 width="700.000000pt" height="700.000000pt" viewBox="0 0 700.000000 700.000000"
 preserveAspectRatio="xMidYMid meet">
<metadata>
Created by potrace 1.11, written by Peter Selinger 2001-2013
</metadata>
<g transform="translate(0.000000,700.000000) scale(0.100000,-0.100000)"
fill="#000000" stroke="none">
<path d="M3440 6126 l0 -433 103 -7 c557 -37 1060 -261 1440 -641 318 -318
531 -733 613 -1195 15 -85 19 -154 19 -355 -1 -279 -13 -372 -79 -601 -57
-200 -186 -482 -216 -476 -8 2 -434 245 -947 540 l-932 537 -3 1095 -3 1095
-85 -3 c-1093 -37 -1991 -895 -2091 -1997 -57 -637 179 -1279 640 -1735 416
-411 945 -630 1531 -631 184 -1 276 8 450 42 561 111 1089 475 1399 965 l52
82 337 -195 c185 -107 356 -205 379 -219 l42 -24 48 92 c129 249 217 484 277
738 192 822 37 1689 -428 2389 -465 699 -1182 1171 -2009 1321 -136 25 -366
50 -464 50 l-73 0 0 -434z"/>
</g>
</svg>
