<?xml version="1.0" encoding="UTF-8" standalone="no"?>
<svg
   xmlns:dc="http://purl.org/dc/elements/1.1/"
   xmlns:cc="http://creativecommons.org/ns#"
   xmlns:rdf="http://www.w3.org/1999/02/22-rdf-syntax-ns#"
   xmlns:svg="http://www.w3.org/2000/svg"
   xmlns="http://www.w3.org/2000/svg"
   id="svg8"
   version="1.1"
   viewBox="0 0 160 160"
   height="160mm"
   width="160mm">
  <defs
     id="defs2" />
  <metadata
     id="metadata5">
    <rdf:RDF>
      <cc:Work
         rdf:about="">
        <dc:format>image/svg+xml</dc:format>
        <dc:type
           rdf:resource="http://purl.org/dc/dcmitype/StillImage" />
        <dc:title></dc:title>
      </cc:Work>
    </rdf:RDF>
  </metadata>
  <g
     transform="translate(-4.6935043,-35.685699)"
     id="layer1">
    <g
       id="g891">
      <circle
         style="opacity:0.98999999;fill:#ffffff;fill-opacity:1;stroke:none;stroke-width:0.49999994;stroke-linecap:round;stroke-linejoin:miter;stroke-miterlimit:4;stroke-dasharray:none;stroke-dashoffset:0;stroke-opacity:1"
         id="path884"
         cx="84.693504"
         cy="115.6857"
         r="80" />
      <path
         style="opacity:0.98999999;fill:#de8787;fill-opacity:1;stroke:none;stroke-width:0.5;stroke-linecap:round;stroke-linejoin:miter;stroke-miterlimit:4;stroke-dasharray:none;stroke-dashoffset:0;stroke-opacity:1"
         d="m 83.231845,45.685896 v 19.999812 a 50,50 0 0 1 50.000045,50.000052 50,50 0 0 1 -6.73757,24.97728 l 17.35966,10.02265 a 69.999999,69.999999 0 0 0 0,-69.999865 69.999999,69.999999 0 0 0 -60.622135,-34.999929 z"
         id="path815-3-7" />
      <path
         style="opacity:0.98999999;fill:#4284f3;fill-opacity:1;stroke:none;stroke-width:0.5;stroke-linecap:round;stroke-linejoin:miter;stroke-miterlimit:4;stroke-dasharray:none;stroke-dashoffset:0;stroke-opacity:1"
         id="path815"
         d="M 126.53329,140.6857 A 50,50 0 0 1 66.13101,162.67033 50,50 0 0 1 33.99163,107.00329 50,50 0 0 1 83.232018,65.685699 l 0,50.000001 z" />
    </g>
  </g>
</svg>
